<svg viewBox="0 0 25 24" fill="none" xmlns="http://www.w3.org/2000/svg">
<path fill-rule="evenodd" clip-rule="evenodd" d="M18.2091 0.129079C15.934 0.10648 13.8164 1.37413 12.6376 3.4643C11.1797 0.752113 8.20886 -0.572161 5.39129 0.234164C2.57373 1.04049 0.610262 3.77684 0.60206 6.90861C0.512916 15.8842 12.433 24 12.433 24C12.433 24 24.5116 16.1593 24.601 7.18378C24.6496 3.33997 21.7879 0.181549 18.2091 0.129079ZM17.3496 17.5748C15.8247 19.1163 14.1881 20.525 12.4552 21.7877C10.7477 20.4858 9.13929 19.0402 7.64525 17.4643C5.19244 14.8513 2.27676 10.9024 2.31636 6.92868C2.3366 4.10252 4.48307 1.82734 7.11442 1.8429C8.7873 1.85983 10.3259 2.82973 11.1554 4.39017L12.6014 7.05849L14.1001 4.42395C14.9605 2.88308 16.518 1.94885 18.1908 1.97032C20.8217 2.01513 22.9224 4.3388 22.8867 7.16464C22.8471 11.1379 19.8536 15.0192 17.3496 17.5748Z" fill="#828282"/>
</svg>